<mxfile host="drawio-plugin" modified="2024-05-18T10:59:26.997Z" agent="5.0 (Windows NT 10.0; Win64; x64) AppleWebKit/537.36 (KHTML, like Gecko) Chrome/111.0.0.0 Safari/537.36" etag="iH5T3Z0Y2IcTn81hDsw5" version="20.5.3" type="embed"><diagram id="23iRSUPoRavnBvh4doch" name="Page-1"><mxGraphModel dx="2034" dy="733" grid="1" gridSize="10" guides="1" tooltips="1" connect="1" arrows="1" fold="1" page="1" pageScale="1" pageWidth="827" pageHeight="1169" math="0" shadow="0"><root><mxCell id="0"/><mxCell id="1" parent="0"/><mxCell id="2" value="VIPMembers" style="swimlane;fontStyle=0;childLayout=stackLayout;horizontal=1;startSize=26;fillColor=none;horizontalStack=0;resizeParent=1;resizeParentMax=0;resizeLast=0;collapsible=1;marginBottom=0;html=1;" parent="1" vertex="1"><mxGeometry x="80" y="250" width="140" height="130" as="geometry"/></mxCell><mxCell id="3" value="&lt;u&gt;VIPMemberID&lt;/u&gt;" style="text;strokeColor=none;fillColor=none;align=left;verticalAlign=top;spacingLeft=4;spacingRight=4;overflow=hidden;rotatable=0;points=[[0,0.5],[1,0.5]];portConstraint=eastwest;whiteSpace=wrap;html=1;" parent="2" vertex="1"><mxGeometry y="26" width="140" height="26" as="geometry"/></mxCell><mxCell id="4" value="Status" style="text;strokeColor=none;fillColor=none;align=left;verticalAlign=top;spacingLeft=4;spacingRight=4;overflow=hidden;rotatable=0;points=[[0,0.5],[1,0.5]];portConstraint=eastwest;whiteSpace=wrap;html=1;" parent="2" vertex="1"><mxGeometry y="52" width="140" height="26" as="geometry"/></mxCell><mxCell id="5" value="VIPStartDate" style="text;strokeColor=none;fillColor=none;align=left;verticalAlign=top;spacingLeft=4;spacingRight=4;overflow=hidden;rotatable=0;points=[[0,0.5],[1,0.5]];portConstraint=eastwest;whiteSpace=wrap;html=1;" parent="2" vertex="1"><mxGeometry y="78" width="140" height="26" as="geometry"/></mxCell><mxCell id="6" value="VIPEndDate" style="text;strokeColor=none;fillColor=none;align=left;verticalAlign=top;spacingLeft=4;spacingRight=4;overflow=hidden;rotatable=0;points=[[0,0.5],[1,0.5]];portConstraint=eastwest;whiteSpace=wrap;html=1;" parent="2" vertex="1"><mxGeometry y="104" width="140" height="26" as="geometry"/></mxCell><mxCell id="7" style="edgeStyle=orthogonalEdgeStyle;rounded=0;orthogonalLoop=1;jettySize=auto;html=1;exitX=1;exitY=0.5;exitDx=0;exitDy=0;entryX=0.931;entryY=0.011;entryDx=0;entryDy=0;entryPerimeter=0;" parent="1" source="8" target="51" edge="1"><mxGeometry relative="1" as="geometry"><mxPoint x="490" y="1080" as="targetPoint"/><Array as="points"><mxPoint x="490" y="289"/><mxPoint x="490" y="1070"/><mxPoint x="330" y="1070"/></Array></mxGeometry></mxCell><mxCell id="8" value="User_VIP" style="rhombus;whiteSpace=wrap;html=1;" parent="1" vertex="1"><mxGeometry x="300" y="269" width="80" height="40" as="geometry"/></mxCell><mxCell id="11" style="edgeStyle=orthogonalEdgeStyle;rounded=0;orthogonalLoop=1;jettySize=auto;html=1;exitX=1;exitY=0.5;exitDx=0;exitDy=0;entryX=0.86;entryY=-0.022;entryDx=0;entryDy=0;entryPerimeter=0;" parent="1" source="13" target="51" edge="1"><mxGeometry relative="1" as="geometry"><Array as="points"><mxPoint x="480" y="465"/><mxPoint x="480" y="1060"/><mxPoint x="320" y="1060"/></Array></mxGeometry></mxCell><mxCell id="12" style="edgeStyle=orthogonalEdgeStyle;rounded=0;orthogonalLoop=1;jettySize=auto;html=1;exitX=0;exitY=0.5;exitDx=0;exitDy=0;entryX=0.995;entryY=0.844;entryDx=0;entryDy=0;entryPerimeter=0;" parent="1" source="13" target="3" edge="1"><mxGeometry relative="1" as="geometry"/></mxCell><mxCell id="13" value="VIP_Order" style="rhombus;whiteSpace=wrap;html=1;" parent="1" vertex="1"><mxGeometry x="300" y="440" width="80" height="50" as="geometry"/></mxCell><mxCell id="14" value="" style="endArrow=none;dashed=1;html=1;rounded=0;exitX=0.5;exitY=1;exitDx=0;exitDy=0;entryX=0.5;entryY=0;entryDx=0;entryDy=0;" parent="1" source="21" target="13" edge="1"><mxGeometry width="50" height="50" relative="1" as="geometry"><mxPoint x="340" y="500" as="sourcePoint"/><mxPoint x="340" y="420" as="targetPoint"/></mxGeometry></mxCell><mxCell id="15" value="Admin_Edit" style="rhombus;whiteSpace=wrap;html=1;" parent="1" vertex="1"><mxGeometry x="-110" y="266" width="90" height="43" as="geometry"/></mxCell><mxCell id="16" value="&lt;u&gt;EditTimeStamp&lt;/u&gt;&lt;br&gt;EditType&lt;br&gt;EditContent" style="whiteSpace=wrap;html=1;" parent="1" vertex="1"><mxGeometry x="-112.5" y="170" width="95" height="52.5" as="geometry"/></mxCell><mxCell id="17" value="" style="endArrow=none;dashed=1;html=1;rounded=0;exitX=0.5;exitY=0;exitDx=0;exitDy=0;entryX=0.5;entryY=1;entryDx=0;entryDy=0;" parent="1" source="15" target="16" edge="1"><mxGeometry width="50" height="50" relative="1" as="geometry"><mxPoint x="-140" y="262.5" as="sourcePoint"/><mxPoint x="-90" y="212.5" as="targetPoint"/></mxGeometry></mxCell><mxCell id="18" value="Admin" style="swimlane;fontStyle=0;childLayout=stackLayout;horizontal=1;startSize=26;fillColor=none;horizontalStack=0;resizeParent=1;resizeParentMax=0;resizeLast=0;collapsible=1;marginBottom=0;html=1;" parent="1" vertex="1"><mxGeometry x="-310" y="250" width="140" height="52" as="geometry"/></mxCell><mxCell id="19" value="AdminID" style="text;strokeColor=none;fillColor=none;align=left;verticalAlign=top;spacingLeft=4;spacingRight=4;overflow=hidden;rotatable=0;points=[[0,0.5],[1,0.5]];portConstraint=eastwest;whiteSpace=wrap;html=1;" parent="18" vertex="1"><mxGeometry y="26" width="140" height="26" as="geometry"/></mxCell><mxCell id="20" value="" style="shape=link;html=1;rounded=0;exitX=1;exitY=0.5;exitDx=0;exitDy=0;entryX=0;entryY=0.5;entryDx=0;entryDy=0;" parent="1" source="3" target="8" edge="1"><mxGeometry width="100" relative="1" as="geometry"><mxPoint x="310" y="340" as="sourcePoint"/><mxPoint x="410" y="340" as="targetPoint"/><Array as="points"/></mxGeometry></mxCell><mxCell id="21" value="&lt;u style=&quot;&quot;&gt;OrderID&lt;br&gt;&lt;/u&gt;&lt;span style=&quot;text-align: left;&quot;&gt;TotalAmount&lt;br&gt;&lt;/span&gt;&lt;span style=&quot;text-align: left;&quot;&gt;PointReturn&lt;br&gt;&lt;/span&gt;&lt;span style=&quot;text-align: left;&quot;&gt;OrderTime&lt;br&gt;&lt;/span&gt;&lt;span style=&quot;text-align: left;&quot;&gt;RechargeTime&lt;/span&gt;&lt;u style=&quot;&quot;&gt;&lt;br&gt;&lt;/u&gt;" style="rounded=0;whiteSpace=wrap;html=1;" parent="1" vertex="1"><mxGeometry x="280" y="350" width="120" height="80" as="geometry"/></mxCell><mxCell id="22" value="" style="endArrow=none;html=1;rounded=0;entryX=0;entryY=0.5;entryDx=0;entryDy=0;exitX=1;exitY=0.5;exitDx=0;exitDy=0;" parent="1" source="15" target="3" edge="1"><mxGeometry width="50" height="50" relative="1" as="geometry"><mxPoint x="-20" y="410" as="sourcePoint"/><mxPoint x="30" y="360" as="targetPoint"/></mxGeometry></mxCell><mxCell id="23" value="" style="endArrow=none;html=1;rounded=0;entryX=0;entryY=0.5;entryDx=0;entryDy=0;exitX=1;exitY=0.5;exitDx=0;exitDy=0;" parent="1" source="19" target="15" edge="1"><mxGeometry width="50" height="50" relative="1" as="geometry"><mxPoint x="-150" y="442.5" as="sourcePoint"/><mxPoint x="-100" y="392.5" as="targetPoint"/></mxGeometry></mxCell><mxCell id="24" value="Advertisements" style="swimlane;fontStyle=0;childLayout=stackLayout;horizontal=1;startSize=26;fillColor=none;horizontalStack=0;resizeParent=1;resizeParentMax=0;resizeLast=0;collapsible=1;marginBottom=0;html=1;" parent="1" vertex="1"><mxGeometry x="135" y="580" width="140" height="208" as="geometry"/></mxCell><mxCell id="25" value="&lt;u&gt;AdID&lt;/u&gt;" style="text;strokeColor=none;fillColor=none;align=left;verticalAlign=top;spacingLeft=4;spacingRight=4;overflow=hidden;rotatable=0;points=[[0,0.5],[1,0.5]];portConstraint=eastwest;whiteSpace=wrap;html=1;" parent="24" vertex="1"><mxGeometry y="26" width="140" height="26" as="geometry"/></mxCell><mxCell id="26" value="AdContent" style="text;strokeColor=none;fillColor=none;align=left;verticalAlign=top;spacingLeft=4;spacingRight=4;overflow=hidden;rotatable=0;points=[[0,0.5],[1,0.5]];portConstraint=eastwest;whiteSpace=wrap;html=1;" parent="24" vertex="1"><mxGeometry y="52" width="140" height="26" as="geometry"/></mxCell><mxCell id="27" value="AdPicture" style="text;strokeColor=none;fillColor=none;align=left;verticalAlign=top;spacingLeft=4;spacingRight=4;overflow=hidden;rotatable=0;points=[[0,0.5],[1,0.5]];portConstraint=eastwest;whiteSpace=wrap;html=1;" parent="24" vertex="1"><mxGeometry y="78" width="140" height="26" as="geometry"/></mxCell><mxCell id="28" value="AdURL" style="text;strokeColor=none;fillColor=none;align=left;verticalAlign=top;spacingLeft=4;spacingRight=4;overflow=hidden;rotatable=0;points=[[0,0.5],[1,0.5]];portConstraint=eastwest;whiteSpace=wrap;html=1;" parent="24" vertex="1"><mxGeometry y="104" width="140" height="26" as="geometry"/></mxCell><mxCell id="29" value="AdType" style="text;strokeColor=none;fillColor=none;align=left;verticalAlign=top;spacingLeft=4;spacingRight=4;overflow=hidden;rotatable=0;points=[[0,0.5],[1,0.5]];portConstraint=eastwest;whiteSpace=wrap;html=1;" parent="24" vertex="1"><mxGeometry y="130" width="140" height="26" as="geometry"/></mxCell><mxCell id="30" value="AdStartDate" style="text;strokeColor=none;fillColor=none;align=left;verticalAlign=top;spacingLeft=4;spacingRight=4;overflow=hidden;rotatable=0;points=[[0,0.5],[1,0.5]];portConstraint=eastwest;whiteSpace=wrap;html=1;" parent="24" vertex="1"><mxGeometry y="156" width="140" height="26" as="geometry"/></mxCell><mxCell id="31" value="AdEndDate" style="text;strokeColor=none;fillColor=none;align=left;verticalAlign=top;spacingLeft=4;spacingRight=4;overflow=hidden;rotatable=0;points=[[0,0.5],[1,0.5]];portConstraint=eastwest;whiteSpace=wrap;html=1;" parent="24" vertex="1"><mxGeometry y="182" width="140" height="26" as="geometry"/></mxCell><mxCell id="32" value="ShowAd" style="rhombus;whiteSpace=wrap;html=1;" parent="1" vertex="1"><mxGeometry x="325" y="667" width="100" height="60" as="geometry"/></mxCell><mxCell id="33" value="" style="endArrow=none;dashed=1;html=1;rounded=0;exitX=0.5;exitY=1;exitDx=0;exitDy=0;entryX=0.5;entryY=0;entryDx=0;entryDy=0;" parent="1" source="32" target="34" edge="1"><mxGeometry width="50" height="50" relative="1" as="geometry"><mxPoint x="225" y="860" as="sourcePoint"/><mxPoint x="275" y="810" as="targetPoint"/><Array as="points"/></mxGeometry></mxCell><mxCell id="34" value="&lt;u&gt;TimeStamp&lt;/u&gt;" style="rounded=0;whiteSpace=wrap;html=1;" parent="1" vertex="1"><mxGeometry x="335" y="750" width="80" height="30" as="geometry"/></mxCell><mxCell id="37" value="ClickAd" style="rhombus;whiteSpace=wrap;html=1;" parent="1" vertex="1"><mxGeometry x="325" y="594" width="80" height="50" as="geometry"/></mxCell><mxCell id="38" value="TimeStamp&lt;br&gt;IPAddress" style="rounded=0;whiteSpace=wrap;html=1;" parent="1" vertex="1"><mxGeometry x="317.5" y="520" width="95" height="40" as="geometry"/></mxCell><mxCell id="39" value="" style="endArrow=none;dashed=1;html=1;rounded=0;entryX=0.5;entryY=1;entryDx=0;entryDy=0;exitX=0.5;exitY=0;exitDx=0;exitDy=0;" parent="1" source="37" target="38" edge="1"><mxGeometry width="50" height="50" relative="1" as="geometry"><mxPoint x="265" y="640" as="sourcePoint"/><mxPoint x="315" y="590" as="targetPoint"/></mxGeometry></mxCell><mxCell id="40" value="AdminEdit" style="rhombus;whiteSpace=wrap;html=1;" parent="1" vertex="1"><mxGeometry x="-15" y="592.5" width="90" height="53" as="geometry"/></mxCell><mxCell id="41" value="TimeStamp&lt;br&gt;EditType&lt;br&gt;EditContent" style="rounded=0;whiteSpace=wrap;html=1;" parent="1" vertex="1"><mxGeometry x="-20" y="500" width="100" height="50" as="geometry"/></mxCell><mxCell id="42" value="" style="endArrow=none;dashed=1;html=1;rounded=0;entryX=0.5;entryY=1;entryDx=0;entryDy=0;exitX=0.5;exitY=0;exitDx=0;exitDy=0;" parent="1" source="40" target="41" edge="1"><mxGeometry width="50" height="50" relative="1" as="geometry"><mxPoint x="-55" y="600" as="sourcePoint"/><mxPoint x="-5" y="550" as="targetPoint"/></mxGeometry></mxCell><mxCell id="45" value="" style="endArrow=none;html=1;rounded=0;entryX=0;entryY=0.5;entryDx=0;entryDy=0;" parent="1" source="19" target="40" edge="1"><mxGeometry width="50" height="50" relative="1" as="geometry"><mxPoint x="-115" y="749" as="sourcePoint"/><mxPoint x="-85" y="774" as="targetPoint"/><Array as="points"><mxPoint x="-240" y="620"/></Array></mxGeometry></mxCell><mxCell id="46" value="" style="endArrow=none;html=1;rounded=0;entryX=0;entryY=0.5;entryDx=0;entryDy=0;exitX=1;exitY=0.5;exitDx=0;exitDy=0;" parent="1" source="40" target="25" edge="1"><mxGeometry width="50" height="50" relative="1" as="geometry"><mxPoint x="-95" y="760" as="sourcePoint"/><mxPoint x="-45" y="710" as="targetPoint"/></mxGeometry></mxCell><mxCell id="47" value="" style="endArrow=none;html=1;rounded=0;entryX=0;entryY=0.5;entryDx=0;entryDy=0;exitX=1;exitY=0.5;exitDx=0;exitDy=0;" parent="1" source="25" target="37" edge="1"><mxGeometry width="50" height="50" relative="1" as="geometry"><mxPoint x="285" y="670" as="sourcePoint"/><mxPoint x="335" y="620" as="targetPoint"/></mxGeometry></mxCell><mxCell id="48" value="" style="endArrow=none;html=1;rounded=0;entryX=0.802;entryY=-0.022;entryDx=0;entryDy=0;exitX=1;exitY=0.5;exitDx=0;exitDy=0;entryPerimeter=0;" parent="1" source="37" target="51" edge="1"><mxGeometry width="50" height="50" relative="1" as="geometry"><mxPoint x="365" y="820" as="sourcePoint"/><mxPoint x="415" y="749" as="targetPoint"/><Array as="points"><mxPoint x="470" y="620"/><mxPoint x="470" y="1050"/><mxPoint x="312" y="1050"/></Array></mxGeometry></mxCell><mxCell id="49" value="" style="endArrow=none;html=1;rounded=0;entryX=0.75;entryY=0;entryDx=0;entryDy=0;exitX=1;exitY=0.5;exitDx=0;exitDy=0;" parent="1" source="32" target="51" edge="1"><mxGeometry width="50" height="50" relative="1" as="geometry"><mxPoint x="485" y="950" as="sourcePoint"/><mxPoint x="489.05999999999995" y="764.6780000000001" as="targetPoint"/><Array as="points"><mxPoint x="460" y="697"/><mxPoint x="460" y="1040"/><mxPoint x="305" y="1040"/></Array></mxGeometry></mxCell><mxCell id="50" value="" style="endArrow=none;html=1;rounded=0;entryX=0;entryY=0.5;entryDx=0;entryDy=0;exitX=1;exitY=0.5;exitDx=0;exitDy=0;" parent="1" source="25" target="32" edge="1"><mxGeometry width="50" height="50" relative="1" as="geometry"><mxPoint x="335" y="880" as="sourcePoint"/><mxPoint x="385" y="830" as="targetPoint"/><Array as="points"><mxPoint x="295" y="620"/><mxPoint x="295" y="697"/></Array></mxGeometry></mxCell><mxCell id="51" value="Users" style="swimlane;fontStyle=0;childLayout=stackLayout;horizontal=1;startSize=30;horizontalStack=0;resizeParent=1;resizeParentMax=0;resizeLast=0;collapsible=1;marginBottom=0;whiteSpace=wrap;html=1;" vertex="1" parent="1"><mxGeometry x="200" y="1098" width="140" height="60" as="geometry"/></mxCell><mxCell id="52" value="&lt;u&gt;user_id&lt;/u&gt;" style="text;strokeColor=none;fillColor=none;align=left;verticalAlign=middle;spacingLeft=4;spacingRight=4;overflow=hidden;points=[[0,0.5],[1,0.5]];portConstraint=eastwest;rotatable=0;whiteSpace=wrap;html=1;" vertex="1" parent="51"><mxGeometry y="30" width="140" height="30" as="geometry"/></mxCell><mxCell id="53" value="User Messages" style="swimlane;fontStyle=0;childLayout=stackLayout;horizontal=1;startSize=30;horizontalStack=0;resizeParent=1;resizeParentMax=0;resizeLast=0;collapsible=1;marginBottom=0;whiteSpace=wrap;html=1;" vertex="1" parent="1"><mxGeometry x="-260" y="1048" width="140" height="180" as="geometry"><mxRectangle x="70" y="240" width="100" height="30" as="alternateBounds"/></mxGeometry></mxCell><mxCell id="54" value="&lt;u&gt;message_id&lt;/u&gt;" style="text;strokeColor=none;fillColor=none;align=left;verticalAlign=middle;spacingLeft=4;spacingRight=4;overflow=hidden;points=[[0,0.5],[1,0.5]];portConstraint=eastwest;rotatable=0;whiteSpace=wrap;html=1;" vertex="1" parent="53"><mxGeometry y="30" width="140" height="30" as="geometry"/></mxCell><mxCell id="55" value="message_content" style="text;strokeColor=none;fillColor=none;align=left;verticalAlign=middle;spacingLeft=4;spacingRight=4;overflow=hidden;points=[[0,0.5],[1,0.5]];portConstraint=eastwest;rotatable=0;whiteSpace=wrap;html=1;" vertex="1" parent="53"><mxGeometry y="60" width="140" height="30" as="geometry"/></mxCell><mxCell id="56" value="read_status" style="text;strokeColor=none;fillColor=none;align=left;verticalAlign=middle;spacingLeft=4;spacingRight=4;overflow=hidden;points=[[0,0.5],[1,0.5]];portConstraint=eastwest;rotatable=0;whiteSpace=wrap;html=1;" vertex="1" parent="53"><mxGeometry y="90" width="140" height="30" as="geometry"/></mxCell><mxCell id="57" value="send_time" style="text;strokeColor=none;fillColor=none;align=left;verticalAlign=middle;spacingLeft=4;spacingRight=4;overflow=hidden;points=[[0,0.5],[1,0.5]];portConstraint=eastwest;rotatable=0;whiteSpace=wrap;html=1;" vertex="1" parent="53"><mxGeometry y="120" width="140" height="30" as="geometry"/></mxCell><mxCell id="58" value="message_type" style="text;strokeColor=none;fillColor=none;align=left;verticalAlign=middle;spacingLeft=4;spacingRight=4;overflow=hidden;points=[[0,0.5],[1,0.5]];portConstraint=eastwest;rotatable=0;whiteSpace=wrap;html=1;" vertex="1" parent="53"><mxGeometry y="150" width="140" height="30" as="geometry"/></mxCell><mxCell id="59" value="send_and_receive" style="rhombus;whiteSpace=wrap;html=1;" vertex="1" parent="1"><mxGeometry x="-60" y="1093" width="130" height="100" as="geometry"/></mxCell><mxCell id="60" value="sender_user_id" style="text;html=1;align=center;verticalAlign=middle;resizable=0;points=[];autosize=1;strokeColor=none;fillColor=none;" vertex="1" parent="1"><mxGeometry x="70" y="1088" width="110" height="30" as="geometry"/></mxCell><mxCell id="61" value="receiver_user_id" style="text;html=1;align=center;verticalAlign=middle;resizable=0;points=[];autosize=1;strokeColor=none;fillColor=none;" vertex="1" parent="1"><mxGeometry x="80" y="1168" width="110" height="30" as="geometry"/></mxCell><mxCell id="62" value="User Posts" style="swimlane;fontStyle=0;childLayout=stackLayout;horizontal=1;startSize=30;horizontalStack=0;resizeParent=1;resizeParentMax=0;resizeLast=0;collapsible=1;marginBottom=0;whiteSpace=wrap;html=1;" vertex="1" parent="1"><mxGeometry x="435" y="1423" width="140" height="150" as="geometry"/></mxCell><mxCell id="63" value="&lt;u&gt;post_id&lt;/u&gt;" style="text;strokeColor=none;fillColor=none;align=left;verticalAlign=middle;spacingLeft=4;spacingRight=4;overflow=hidden;points=[[0,0.5],[1,0.5]];portConstraint=eastwest;rotatable=0;whiteSpace=wrap;html=1;" vertex="1" parent="62"><mxGeometry y="30" width="140" height="30" as="geometry"/></mxCell><mxCell id="64" value="content" style="text;strokeColor=none;fillColor=none;align=left;verticalAlign=middle;spacingLeft=4;spacingRight=4;overflow=hidden;points=[[0,0.5],[1,0.5]];portConstraint=eastwest;rotatable=0;whiteSpace=wrap;html=1;" vertex="1" parent="62"><mxGeometry y="60" width="140" height="30" as="geometry"/></mxCell><mxCell id="65" value="post_date" style="text;strokeColor=none;fillColor=none;align=left;verticalAlign=middle;spacingLeft=4;spacingRight=4;overflow=hidden;points=[[0,0.5],[1,0.5]];portConstraint=eastwest;rotatable=0;whiteSpace=wrap;html=1;" vertex="1" parent="62"><mxGeometry y="90" width="140" height="30" as="geometry"/></mxCell><mxCell id="66" value="popularity" style="text;strokeColor=none;fillColor=none;align=left;verticalAlign=middle;spacingLeft=4;spacingRight=4;overflow=hidden;points=[[0,0.5],[1,0.5]];portConstraint=eastwest;rotatable=0;whiteSpace=wrap;html=1;" vertex="1" parent="62"><mxGeometry y="120" width="140" height="30" as="geometry"/></mxCell><mxCell id="67" value="post" style="rhombus;whiteSpace=wrap;html=1;" vertex="1" parent="1"><mxGeometry x="450" y="1288" width="80" height="80" as="geometry"/></mxCell><mxCell id="68" value="User Relationships" style="rhombus;whiteSpace=wrap;html=1;" vertex="1" parent="1"><mxGeometry x="540" y="1060.5" width="145" height="85" as="geometry"/></mxCell><mxCell id="69" value="Questions" style="swimlane;fontStyle=0;childLayout=stackLayout;horizontal=1;startSize=30;horizontalStack=0;resizeParent=1;resizeParentMax=0;resizeLast=0;collapsible=1;marginBottom=0;whiteSpace=wrap;html=1;" vertex="1" parent="1"><mxGeometry x="-230" y="1333" width="140" height="120" as="geometry"/></mxCell><mxCell id="70" value="&lt;u&gt;question_id&lt;/u&gt;" style="text;strokeColor=none;fillColor=none;align=left;verticalAlign=middle;spacingLeft=4;spacingRight=4;overflow=hidden;points=[[0,0.5],[1,0.5]];portConstraint=eastwest;rotatable=0;whiteSpace=wrap;html=1;" vertex="1" parent="69"><mxGeometry y="30" width="140" height="30" as="geometry"/></mxCell><mxCell id="71" value="question_content" style="text;strokeColor=none;fillColor=none;align=left;verticalAlign=middle;spacingLeft=4;spacingRight=4;overflow=hidden;points=[[0,0.5],[1,0.5]];portConstraint=eastwest;rotatable=0;whiteSpace=wrap;html=1;" vertex="1" parent="69"><mxGeometry y="60" width="140" height="30" as="geometry"/></mxCell><mxCell id="72" value="question_time" style="text;strokeColor=none;fillColor=none;align=left;verticalAlign=middle;spacingLeft=4;spacingRight=4;overflow=hidden;points=[[0,0.5],[1,0.5]];portConstraint=eastwest;rotatable=0;whiteSpace=wrap;html=1;" vertex="1" parent="69"><mxGeometry y="90" width="140" height="30" as="geometry"/></mxCell><mxCell id="73" value="Answers" style="swimlane;fontStyle=0;childLayout=stackLayout;horizontal=1;startSize=30;horizontalStack=0;resizeParent=1;resizeParentMax=0;resizeLast=0;collapsible=1;marginBottom=0;whiteSpace=wrap;html=1;" vertex="1" parent="1"><mxGeometry x="200" y="1508" width="140" height="120" as="geometry"/></mxCell><mxCell id="74" value="&lt;u&gt;answer_id&lt;/u&gt;" style="text;strokeColor=none;fillColor=none;align=left;verticalAlign=middle;spacingLeft=4;spacingRight=4;overflow=hidden;points=[[0,0.5],[1,0.5]];portConstraint=eastwest;rotatable=0;whiteSpace=wrap;html=1;" vertex="1" parent="73"><mxGeometry y="30" width="140" height="30" as="geometry"/></mxCell><mxCell id="75" value="answer_content" style="text;strokeColor=none;fillColor=none;align=left;verticalAlign=middle;spacingLeft=4;spacingRight=4;overflow=hidden;points=[[0,0.5],[1,0.5]];portConstraint=eastwest;rotatable=0;whiteSpace=wrap;html=1;" vertex="1" parent="73"><mxGeometry y="60" width="140" height="30" as="geometry"/></mxCell><mxCell id="76" value="answer_date" style="text;strokeColor=none;fillColor=none;align=left;verticalAlign=middle;spacingLeft=4;spacingRight=4;overflow=hidden;points=[[0,0.5],[1,0.5]];portConstraint=eastwest;rotatable=0;whiteSpace=wrap;html=1;" vertex="1" parent="73"><mxGeometry y="90" width="140" height="30" as="geometry"/></mxCell><mxCell id="77" value="question_and_subscribe" style="rhombus;whiteSpace=wrap;html=1;" vertex="1" parent="1"><mxGeometry x="-40" y="1253" width="150" height="80" as="geometry"/></mxCell><mxCell id="78" style="edgeStyle=orthogonalEdgeStyle;rounded=0;orthogonalLoop=1;jettySize=auto;html=1;exitX=0.5;exitY=1;exitDx=0;exitDy=0;entryX=0.5;entryY=0;entryDx=0;entryDy=0;shape=link;" edge="1" parent="1" source="79" target="73"><mxGeometry relative="1" as="geometry"/></mxCell><mxCell id="79" value="answer_posed" style="rhombus;whiteSpace=wrap;html=1;" vertex="1" parent="1"><mxGeometry x="215" y="1358" width="110" height="80" as="geometry"/></mxCell><mxCell id="80" style="edgeStyle=orthogonalEdgeStyle;rounded=0;orthogonalLoop=1;jettySize=auto;html=1;exitX=0;exitY=0.5;exitDx=0;exitDy=0;entryX=1;entryY=0.5;entryDx=0;entryDy=0;" edge="1" parent="1" source="82" target="72"><mxGeometry relative="1" as="geometry"/></mxCell><mxCell id="81" style="edgeStyle=orthogonalEdgeStyle;rounded=0;orthogonalLoop=1;jettySize=auto;html=1;exitX=1;exitY=0.5;exitDx=0;exitDy=0;entryX=0;entryY=0.5;entryDx=0;entryDy=0;shape=link;" edge="1" parent="1" source="82" target="73"><mxGeometry relative="1" as="geometry"/></mxCell><mxCell id="82" value="answer_question" style="rhombus;whiteSpace=wrap;html=1;" vertex="1" parent="1"><mxGeometry y="1528" width="120" height="80" as="geometry"/></mxCell><mxCell id="83" value="Items" style="swimlane;fontStyle=0;childLayout=stackLayout;horizontal=1;startSize=30;horizontalStack=0;resizeParent=1;resizeParentMax=0;resizeLast=0;collapsible=1;marginBottom=0;whiteSpace=wrap;html=1;" vertex="1" parent="1"><mxGeometry x="-230" y="1758" width="140" height="60" as="geometry"/></mxCell><mxCell id="84" value="&lt;u&gt;item_id&lt;/u&gt;" style="text;strokeColor=none;fillColor=none;align=left;verticalAlign=middle;spacingLeft=4;spacingRight=4;overflow=hidden;points=[[0,0.5],[1,0.5]];portConstraint=eastwest;rotatable=0;whiteSpace=wrap;html=1;" vertex="1" parent="83"><mxGeometry y="30" width="140" height="30" as="geometry"/></mxCell><mxCell id="85" style="edgeStyle=orthogonalEdgeStyle;rounded=0;orthogonalLoop=1;jettySize=auto;html=1;exitX=0.5;exitY=1;exitDx=0;exitDy=0;entryX=0.5;entryY=0;entryDx=0;entryDy=0;" edge="1" parent="1" source="86" target="83"><mxGeometry relative="1" as="geometry"/></mxCell><mxCell id="86" value="question_about_items" style="rhombus;whiteSpace=wrap;html=1;" vertex="1" parent="1"><mxGeometry x="-235" y="1638" width="150" height="80" as="geometry"/></mxCell><mxCell id="87" style="edgeStyle=orthogonalEdgeStyle;rounded=0;orthogonalLoop=1;jettySize=auto;html=1;exitX=0.5;exitY=0;exitDx=0;exitDy=0;" edge="1" parent="1" source="67"><mxGeometry relative="1" as="geometry"><mxPoint x="308" y="1158" as="targetPoint"/><Array as="points"><mxPoint x="490" y="1248"/><mxPoint x="308" y="1248"/></Array></mxGeometry></mxCell><mxCell id="88" style="edgeStyle=orthogonalEdgeStyle;rounded=0;orthogonalLoop=1;jettySize=auto;html=1;exitX=0.5;exitY=0;exitDx=0;exitDy=0;" edge="1" parent="1" source="79"><mxGeometry relative="1" as="geometry"><mxPoint x="270" y="1158" as="targetPoint"/><Array as="points"><mxPoint x="270" y="1158"/></Array></mxGeometry></mxCell><mxCell id="89" style="edgeStyle=orthogonalEdgeStyle;rounded=0;orthogonalLoop=1;jettySize=auto;html=1;exitX=0.5;exitY=1;exitDx=0;exitDy=0;entryX=0.393;entryY=0.007;entryDx=0;entryDy=0;entryPerimeter=0;shape=link;" edge="1" parent="1" source="67" target="62"><mxGeometry relative="1" as="geometry"/></mxCell><mxCell id="90" style="edgeStyle=orthogonalEdgeStyle;rounded=0;orthogonalLoop=1;jettySize=auto;html=1;exitX=0.5;exitY=0;exitDx=0;exitDy=0;entryX=0.495;entryY=0.989;entryDx=0;entryDy=0;entryPerimeter=0;shape=link;" edge="1" parent="1" source="86" target="72"><mxGeometry relative="1" as="geometry"><mxPoint x="-160" y="1512.01" as="targetPoint"/></mxGeometry></mxCell><mxCell id="91" value="" style="endArrow=none;html=1;rounded=0;entryX=1;entryY=0.25;entryDx=0;entryDy=0;exitX=0.5;exitY=0;exitDx=0;exitDy=0;edgeStyle=orthogonalEdgeStyle;" edge="1" parent="1" source="68" target="51"><mxGeometry width="50" height="50" relative="1" as="geometry"><mxPoint x="540" y="1093" as="sourcePoint"/><mxPoint x="590" y="1043" as="targetPoint"/><Array as="points"><mxPoint x="613" y="1051"/><mxPoint x="520" y="1051"/><mxPoint x="520" y="1113"/></Array></mxGeometry></mxCell><mxCell id="92" value="" style="endArrow=none;html=1;rounded=0;entryX=0.5;entryY=1;entryDx=0;entryDy=0;edgeStyle=orthogonalEdgeStyle;" edge="1" parent="1" target="68"><mxGeometry width="50" height="50" relative="1" as="geometry"><mxPoint x="340" y="1155" as="sourcePoint"/><mxPoint x="480" y="1178" as="targetPoint"/></mxGeometry></mxCell><mxCell id="93" value="user_id1" style="text;html=1;align=center;verticalAlign=middle;resizable=0;points=[];autosize=1;strokeColor=none;fillColor=none;" vertex="1" parent="1"><mxGeometry x="480" y="1018" width="70" height="30" as="geometry"/></mxCell><mxCell id="94" value="user_id2" style="text;html=1;align=center;verticalAlign=middle;resizable=0;points=[];autosize=1;strokeColor=none;fillColor=none;" vertex="1" parent="1"><mxGeometry x="465" y="1158" width="70" height="30" as="geometry"/></mxCell><mxCell id="95" value="Follow" style="rhombus;whiteSpace=wrap;html=1;" vertex="1" parent="1"><mxGeometry x="245" y="898" width="95" height="80" as="geometry"/></mxCell><mxCell id="96" value="" style="endArrow=none;html=1;rounded=0;exitX=0.319;exitY=-0.05;exitDx=0;exitDy=0;exitPerimeter=0;" edge="1" parent="1" source="51"><mxGeometry width="50" height="50" relative="1" as="geometry"><mxPoint x="195" y="988" as="sourcePoint"/><mxPoint x="245" y="938" as="targetPoint"/></mxGeometry></mxCell><mxCell id="97" value="" style="endArrow=none;html=1;rounded=0;exitX=0.643;exitY=0;exitDx=0;exitDy=0;exitPerimeter=0;edgeStyle=orthogonalEdgeStyle;" edge="1" parent="1" source="51"><mxGeometry width="50" height="50" relative="1" as="geometry"><mxPoint x="290" y="988" as="sourcePoint"/><mxPoint x="340" y="938" as="targetPoint"/></mxGeometry></mxCell><mxCell id="98" value="follower_user_id" style="text;html=1;align=center;verticalAlign=middle;resizable=0;points=[];autosize=1;strokeColor=none;fillColor=none;" vertex="1" parent="1"><mxGeometry x="135" y="986" width="110" height="30" as="geometry"/></mxCell><mxCell id="99" value="followed_user_id" style="text;html=1;align=center;verticalAlign=middle;resizable=0;points=[];autosize=1;strokeColor=none;fillColor=none;" vertex="1" parent="1"><mxGeometry x="340" y="978" width="110" height="30" as="geometry"/></mxCell><mxCell id="100" value="" style="endArrow=none;dashed=1;html=1;rounded=0;exitX=1;exitY=0.5;exitDx=0;exitDy=0;entryX=0;entryY=0.472;entryDx=0;entryDy=0;entryPerimeter=0;" edge="1" parent="1" source="68"><mxGeometry width="50" height="50" relative="1" as="geometry"><mxPoint x="700" y="1145.5" as="sourcePoint"/><mxPoint x="750" y="1102.98" as="targetPoint"/></mxGeometry></mxCell><mxCell id="101" value="relation_id&lt;div&gt;relation_type&lt;/div&gt;&lt;div&gt;established_date&lt;/div&gt;" style="rounded=0;whiteSpace=wrap;html=1;" vertex="1" parent="1"><mxGeometry x="750" y="1073" width="120" height="60" as="geometry"/></mxCell><mxCell id="102" value="follow_id&lt;div&gt;follow_date&lt;/div&gt;" style="rounded=0;whiteSpace=wrap;html=1;" vertex="1" parent="1"><mxGeometry x="241.25" y="830" width="102.5" height="50" as="geometry"/></mxCell><mxCell id="103" value="" style="endArrow=none;dashed=1;html=1;rounded=0;entryX=0.5;entryY=1;entryDx=0;entryDy=0;exitX=0.5;exitY=0;exitDx=0;exitDy=0;" edge="1" parent="1" source="95" target="102"><mxGeometry width="50" height="50" relative="1" as="geometry"><mxPoint x="290" y="898" as="sourcePoint"/><mxPoint x="340" y="848" as="targetPoint"/></mxGeometry></mxCell><mxCell id="104" value="" style="endArrow=none;html=1;rounded=0;entryX=0;entryY=0.333;entryDx=0;entryDy=0;exitX=1;exitY=0;exitDx=0;exitDy=0;entryPerimeter=0;" edge="1" parent="1" source="59" target="51"><mxGeometry width="50" height="50" relative="1" as="geometry"><mxPoint x="94" y="1118" as="sourcePoint"/><mxPoint x="144" y="1068" as="targetPoint"/></mxGeometry></mxCell><mxCell id="105" value="" style="endArrow=none;html=1;rounded=0;entryX=0;entryY=0.5;entryDx=0;entryDy=0;exitX=1;exitY=1;exitDx=0;exitDy=0;edgeStyle=orthogonalEdgeStyle;" edge="1" parent="1" source="59" target="52"><mxGeometry width="50" height="50" relative="1" as="geometry"><mxPoint x="110" y="1218" as="sourcePoint"/><mxPoint x="160" y="1168" as="targetPoint"/></mxGeometry></mxCell><mxCell id="106" value="" style="endArrow=none;html=1;rounded=0;entryX=0.1;entryY=1.078;entryDx=0;entryDy=0;entryPerimeter=0;exitX=0.5;exitY=0;exitDx=0;exitDy=0;edgeStyle=orthogonalEdgeStyle;" edge="1" parent="1" source="77" target="52"><mxGeometry width="50" height="50" relative="1" as="geometry"><mxPoint x="94" y="1268" as="sourcePoint"/><mxPoint x="144" y="1218" as="targetPoint"/><Array as="points"><mxPoint x="214" y="1253"/></Array></mxGeometry></mxCell><mxCell id="107" value="" style="endArrow=none;html=1;rounded=0;exitX=0.5;exitY=1;exitDx=0;exitDy=0;entryX=0.271;entryY=1.078;entryDx=0;entryDy=0;entryPerimeter=0;edgeStyle=orthogonalEdgeStyle;" edge="1" parent="1" source="77" target="52"><mxGeometry width="50" height="50" relative="1" as="geometry"><mxPoint x="120" y="1318" as="sourcePoint"/><mxPoint x="170" y="1268" as="targetPoint"/><Array as="points"><mxPoint x="238" y="1333"/></Array></mxGeometry></mxCell><mxCell id="108" value="user_id" style="text;html=1;align=center;verticalAlign=middle;resizable=0;points=[];autosize=1;strokeColor=none;fillColor=none;" vertex="1" parent="1"><mxGeometry x="84" y="1223" width="60" height="30" as="geometry"/></mxCell><mxCell id="109" value="subscriber_id" style="text;html=1;align=center;verticalAlign=middle;resizable=0;points=[];autosize=1;strokeColor=none;fillColor=none;" vertex="1" parent="1"><mxGeometry x="75" y="1336" width="90" height="30" as="geometry"/></mxCell><mxCell id="110" value="" style="endArrow=none;html=1;rounded=0;entryX=0;entryY=0.5;entryDx=0;entryDy=0;exitX=0.5;exitY=0;exitDx=0;exitDy=0;edgeStyle=orthogonalEdgeStyle;" edge="1" parent="1" source="69" target="77"><mxGeometry width="50" height="50" relative="1" as="geometry"><mxPoint x="-160" y="1303" as="sourcePoint"/><mxPoint x="-110" y="1253" as="targetPoint"/></mxGeometry></mxCell><mxCell id="111" value="" style="endArrow=none;html=1;rounded=0;entryX=0;entryY=0.5;entryDx=0;entryDy=0;" edge="1" parent="1" target="59"><mxGeometry width="50" height="50" relative="1" as="geometry"><mxPoint x="-120" y="1143" as="sourcePoint"/><mxPoint x="-70" y="1095.5" as="targetPoint"/></mxGeometry></mxCell></root></mxGraphModel></diagram></mxfile>